<?xml version="1.0" encoding="UTF-8"?> <svg xmlns="http://www.w3.org/2000/svg" version="1.2" viewBox="0 0 1592 164" width="1592" height="164"><title>Autodesk_Logo_2021-svg</title><style> tspan { white-space:pre } .shp0 { fill: #000000 } </style><path id="path2-1" fill-rule="evenodd" class="shp0" d="M867.07 0.66C923.66 0.66 952.97 35.36 952.88 82.09C952.88 129 923.66 163.89 867.07 163.89C810.66 163.89 781.44 129 781.44 82.09C781.44 35.36 810.66 0.66 867.07 0.66ZM1425.63 53.87L1386.87 53.87C1384.93 42.49 1374.3 34.89 1353.95 34.89C1332.78 34.89 1321.96 42.01 1321.96 49.97C1321.96 57.1 1327.23 62.38 1348.31 64.69L1384.38 68.76C1412.86 72 1427.93 87.73 1427.93 113.91C1427.93 143.99 1402.5 163.98 1357 163.98C1307.16 163.98 1283.95 145.75 1282.19 110.03L1320.2 110.03C1321.95 123.26 1332.41 129.84 1358.39 129.84C1380.87 129.84 1390.2 122.7 1390.2 114.75C1390.2 107.72 1383.82 102.35 1369.86 100.78L1333.24 96.89C1300.32 93.37 1284.41 80.51 1284.41 53.22C1284.41 19.63 1308.36 0.66 1356.08 0.66C1396.21 0.66 1423.68 21.02 1425.63 53.87ZM510.67 4.36L510.67 100.32C510.67 120.12 524.08 128.63 544.61 128.63C565.79 128.63 578.17 120.49 578.17 100.32L577.99 100.32L577.99 4.36L617.56 4.36L617.56 104.85C617.56 149.64 577.8 163.61 544.51 163.61C511.03 163.61 471.09 149.64 471.09 104.85L471.09 4.36L510.67 4.36ZM221.67 4.91C225 4.91 227.22 7.41 227.22 10.28L227.22 160.09L140.57 160.09L140.67 134.27C140.67 130.29 142.24 125.02 146.68 122.33L214.84 81.44C215.94 80.79 216.87 79.95 216.87 77.92C216.87 75.42 214.83 73.67 212.61 73.67L140.57 73.67L1.77 160.09L0.57 160.09L0.57 90.96L139.01 4.91L221.67 4.91ZM405.89 4.91L466.09 160.09L423.83 160.09L413.66 131.03L347.26 131.03L336.9 160.09L296.03 160.09L355.5 4.91L405.89 4.91ZM775.06 4.91L775.06 38.5L725.21 38.5L725.21 160.09L685.72 160.09L685.72 38.5L635.69 38.5L635.69 4.91L775.06 4.91ZM1046.94 4.91C1103.16 4.91 1117.86 26.84 1117.86 81.34C1117.86 139.36 1102.52 160.09 1046.94 160.09L974.43 160.09L974.43 4.91L1046.94 4.91ZM1264.81 4.91L1264.81 38.5L1179.55 38.5L1179.55 64.69L1248.16 64.69L1248.16 98.37L1179.55 98.37L1179.55 126.5L1264.81 126.5L1264.81 160.09L1139.97 160.09L1139.97 4.91L1264.81 4.91ZM1487.68 4.91L1487.68 67.93L1544.09 4.91L1591.16 4.91L1519.02 83.48L1591.16 160.09L1541.13 160.09L1487.68 101.15L1487.68 160.09L1448.27 160.09L1448.09 4.91L1487.68 4.91ZM867.07 35.54C837.84 35.54 821.76 53.58 821.76 82.09C821.76 111.14 837.84 129 867.07 129C896.57 129 912.47 111.23 912.39 82.09C912.39 53.58 896.57 35.54 867.07 35.54ZM359 98L402.1 98L380.74 37.21L359 98ZM1013.92 126.5L1045.36 126.5C1069.22 126.5 1077.54 114.29 1077.54 81.34C1077.54 45.25 1070.14 38.5 1045.36 38.5L1013.92 38.5L1013.92 126.5Z"></path></svg> 