<?xml version="1.0" encoding="UTF-8"?> <svg xmlns="http://www.w3.org/2000/svg" width="565" height="205" viewBox="0 0 565 205"><path id="Path-copy" fill="#ffffff" stroke="none" d="M 406.635986 198.972992 C 408.346008 196.351013 411.960022 188.487 412.60199 187.147003 L 434.619019 186.097992 C 435.434998 187.127014 440.682007 195.963013 442.119995 198.992004 L 452.867004 192.894989 C 449.174988 187.825989 431.491028 159.455994 424.14502 148.601013 L 423.619995 148.601013 C 418.937012 155.649994 399.426025 188.875 396.607971 193.574005 L 406.635986 198.972992 Z M 416.197021 179.553986 C 417.538025 176.912994 422.026978 167.670013 423.601013 165.106995 C 424.804993 167.20401 429.643982 176.039001 431.374023 178.894012 L 416.197021 179.553986 Z M 286.169983 198.972992 C 287.880005 196.332001 291.494019 188.46701 292.135986 187.147003 L 314.153015 186.097992 C 314.969971 187.108002 320.21698 195.942993 321.655029 198.972992 L 332.401001 192.875 C 328.708984 187.825989 311.025024 159.436005 303.679016 148.580994 L 303.153992 148.580994 C 298.471008 155.630005 278.960022 188.855988 276.142029 193.554993 L 286.169983 198.972992 Z M 295.731018 179.553986 C 297.072021 176.932007 301.560974 167.688995 303.13501 165.106995 C 304.340027 167.222992 309.158997 176.039001 310.90802 178.912994 L 295.731018 179.553986 Z M 274.763 161.804993 L 274.763 150.503998 L 262.596985 150.503998 C 262.596985 152.872986 262.830994 157.222992 262.810974 161.825012 L 262.810974 164.233002 C 262.810974 176.583008 262.810974 181.457001 260.148987 185.147003 C 259.234009 186.51001 257.991028 187.622009 256.534973 188.381989 C 255.078003 189.141998 253.455017 189.524994 251.812012 189.496002 C 250.208008 189.595001 248.606018 189.268005 247.169006 188.548004 C 245.732971 187.82901 244.512024 186.742004 243.630981 185.398987 C 240.734985 181.825989 240.44397 177.106995 240.463013 167.048004 L 240.463013 162.678986 C 240.463013 156.717987 240.463013 153.105988 240.65802 151.53299 L 228.375977 151.53299 C 228.375977 152.970001 228.219971 158.231995 228.200989 161.242004 L 228.200989 164.776001 C 228.200989 180.855011 229.521973 185.690002 232.86499 190.563995 C 237.820007 197.709991 246.138 198.565002 250.781982 198.584015 C 258.554993 198.584015 264.38501 196.253998 268.718994 191.360992 C 273.90802 185.359985 274.742981 177.670013 274.763 164.950989 L 274.763 161.804993 Z M 223.362 195.399994 C 218.387024 195.166992 213.218018 194.855988 207.815979 194.369995 L 207.815979 194.098999 C 211.869995 192.184998 215.299011 189.162994 217.705994 185.382996 C 220.114014 181.602997 221.401001 177.218994 221.419006 172.738007 C 221.419006 159.144989 211.507996 150.270996 196.369019 150.270996 C 178.530029 150.270996 167.607971 162.562988 167.607971 175.845001 C 167.554993 179.054993 168.226013 182.234985 169.572021 185.149994 C 170.916992 188.065002 172.903015 190.639008 175.382019 192.681 C 182.260986 198.351013 191.997009 198.506989 192.870972 198.506989 C 194.66803 198.59201 196.455017 198.819 198.216003 199.186005 C 205.872009 200.682007 214.481018 202.682007 221.846008 204.177002 L 223.362 195.399994 Z M 180.609009 175.321014 C 180.609009 166.777008 185.487 158.737 195.494995 158.717987 C 202.218994 158.717987 208.572998 163.437012 208.534973 173.457001 C 208.534973 184.641998 201.5 190.157013 194.057007 190.157013 C 187.041992 190.157013 180.590027 185.321014 180.609009 175.321014 Z M 138.458984 198.292999 C 138.458984 197.088989 138.458984 189.574005 138.458984 188.253998 L 138.458984 185.496002 C 154.005005 182.933014 162.789001 174.213989 162.809021 165.165009 C 162.809021 157.610992 156.609009 153.630005 148.388977 151.980011 C 141.013977 150.806 133.546021 150.312012 126.080017 150.503998 C 126.080017 151.571991 126.487976 165.416992 126.468994 166.98999 L 126.468994 174.389008 C 126.468994 179.088013 126.234985 195.536011 126.059998 198.292999 L 138.458984 198.292999 Z M 138.458984 158.32901 C 148.661011 158.640015 150.33197 163.514008 150.33197 166.893005 C 150.33197 173.028992 144.366028 176.834991 138.439026 178.05899 L 138.458984 158.32901 Z M 58.78302 199.28299 C 59.794006 196.506012 67.138977 174.834991 68.401978 171.806 C 69.627014 174.466003 77.439026 187.690002 82.317017 195.108002 L 82.607971 195.108002 C 87.018982 189.496002 97.280029 173.437012 98.854004 171.572998 C 99.630981 173.106995 107.619019 194.07901 109.969971 199.34201 L 120.560974 194.835999 C 118.132019 189.924011 105.013977 159.222992 101.127991 151.299988 L 100.796997 151.299988 C 98.018982 155.493988 86.299988 174.427002 83.734985 178.05899 C 81.674988 174.855011 70.36499 155.493988 66.926025 149.804993 L 66.55603 149.804993 C 64.010986 155.493988 49.650024 192.971985 48.328003 195.632996 L 58.78302 199.28299 Z M 46.754028 161.766998 C 46.754028 156.658997 46.754028 151.92099 46.754028 150.464996 L 34.510986 150.464996 C 34.724976 152.852997 35.075012 157.18399 35.036011 161.786011 L 35.036011 164.213013 C 35.036011 176.544006 34.802979 181.417999 32.296021 185.108002 C 31.346985 186.488007 30.067017 187.609009 28.573975 188.368011 C 27.080017 189.127991 25.419983 189.502991 23.744995 189.458008 C 22.14502 189.524994 20.552979 189.187012 19.119019 188.473999 C 17.684998 187.76001 16.455017 186.696014 15.544006 185.380005 C 12.921021 181.786987 12.31897 177.088013 12.356995 167.01001 L 12.356995 162.660004 C 12.247009 158.921997 12.442017 155.181 12.940002 151.475006 L 0.309021 151.475006 L 0.309021 164.621002 C 0.309021 180.739014 1.396973 185.574005 4.797974 190.428009 C 9.812012 197.575012 17.973999 198.428986 22.870972 198.447998 C 30.429993 198.447998 36.473999 196.098999 40.827026 191.225006 C 45.97699 185.243988 46.656982 177.515015 46.656982 164.815002 L 46.754028 161.766998 Z M 227.993042 0.424011 L 222.785034 0.77301 L 218.89801 28.580994 L 219.869995 62.583008 L 219.344971 96.118988 L 218.761963 119.03299 L 249.505005 118.703003 L 290.801025 119.576996 L 319.134033 117.363007 L 330.541016 116.080994 L 329.588989 66.796997 L 325.936035 37.669006 L 327.879028 4.656982 L 257.259033 0.890015 L 227.993042 0.424011 Z M 274.204956 11.860962 L 292.744019 31.144043 L 276.031982 28.426025 L 298.321045 50.523987 L 274.554993 45.688965 L 297.349976 68.156006 L 271.52301 62.661011 L 274.981995 83.769012 L 264.235962 83.769012 L 267.072998 62.990997 L 247.755981 73.807007 L 263.109009 46.620972 L 246.26001 55.126007 L 266.432007 26.134033 L 253.799988 29.454956 L 274.204956 11.860962 Z M 303.781982 89.166992 L 319.484009 95.904999 L 317.541016 100.468994 L 303.023987 95.556 L 288.507996 103.089996 L 275.041016 97.14801 L 261.165039 103.924988 L 246.221008 96.799011 L 232.035034 102.623993 L 229.703003 98.294006 L 245.25 90.622986 L 262.526001 96.73999 L 274.515991 90.292999 L 286.778015 96.118988 L 303.781982 89.166992 Z M 533.109985 199.380005 C 532.869995 198.040985 532.660034 182.583008 532.660034 177.417999 L 532.660034 174.990997 L 533.150024 174.990997 C 537.599976 180.81601 553.959961 198.447998 554.829956 199.613007 L 564.23999 191.535004 C 561.630005 188.739014 548.170044 176 545.579956 173.437012 C 549.469971 169.806 560.099976 160.213013 563.069946 157.377991 L 554.329956 149.72699 C 552.790039 151.669006 537.089966 167.845001 533.180054 172.40799 L 532.719971 172.40799 L 532.719971 170.154999 C 532.719971 164 533.01001 150.737 533.199951 149.648987 L 520.319946 149.648987 C 520.319946 151.183014 520.51001 164.854004 520.51001 170.718994 L 520.51001 178.174988 C 520.51001 185.942993 520.26001 197.593994 520.23999 199.536011 L 533.109985 199.380005 Z M 470.297974 199.127991 C 470.085022 196.73999 470.512024 171.533997 470.512024 169.300995 C 471.426025 170.446991 502.030029 196.175995 507.77002 199.944 L 508.210022 199.787994 C 508.390015 193.768005 509.109985 183.263 509.51001 173.457001 C 509.919983 163.649994 510.679993 154.153992 511.150024 150.153992 L 499.599976 149.687988 C 499.599976 152.601013 499.309998 176.505005 499.309998 179.359985 C 496.919983 177.417999 468.880005 153.649994 462.174988 148.658997 L 461.690002 148.872986 C 461.223022 153.009003 460.484985 164.174011 459.745972 174.971008 C 459.007996 185.768005 458.65802 196.138 458.424988 198.759003 L 470.297974 199.127991 Z M 360.676025 198.565002 C 381.682983 198.565002 392.81897 190.506012 392.856995 182.700012 C 392.856995 176.466003 386.27002 173.223999 381.197998 172.368988 L 381.197998 171.921997 C 388.971008 168.660004 390.351013 164.154999 390.369995 161.59201 C 390.369995 157.825012 388.659973 152.290009 373.44397 150.737 C 368.76001 150.386993 364.213013 150.037994 356.14801 150.075989 C 356.594971 151.610992 356.61499 163.300995 356.575989 165.416992 L 356.575989 173.184998 C 356.575989 174.485992 356.575989 195.010986 356.109985 198.604004 L 360.676025 198.565002 Z M 368.275024 176.466003 C 374.784973 176.117004 380.16803 178.679993 380.226013 183.165985 C 380.226013 188.020996 373.716003 191.204987 368.236023 191.652008 L 368.275024 176.466003 Z M 368.275024 156.658997 C 372.025024 156.658997 378.458008 157.493988 378.458008 162.348999 C 378.458008 167.20401 373.268982 170.699005 368.255005 170.854004 L 368.275024 156.658997 Z"></path></svg> 